<svg width="31" height="32" viewBox="0 0 31 32" fill="none" xmlns="http://www.w3.org/2000/svg">
<mask id="path-1-inside-1_193_426" fill="white">
<path fill-rule="evenodd" clip-rule="evenodd" d="M15.5 26.5C21.299 26.5 26 21.799 26 16C26 10.201 21.299 5.5 15.5 5.5C9.70101 5.5 5 10.201 5 16C5 19.3449 6.56405 22.3245 9.00071 24.2473L7.99954 26.5H15.4714C15.4809 26.5 15.4905 26.5 15.5 26.5Z"/>
</mask>
<path d="M9.00071 24.2473L9.91452 24.6535L10.23 23.9436L9.62019 23.4623L9.00071 24.2473ZM7.99954 26.5L7.08573 26.0938L6.46078 27.5H7.99954V26.5ZM15.4714 26.5L15.474 25.5H15.4714V26.5ZM25 16C25 21.2467 20.7467 25.5 15.5 25.5V27.5C21.8513 27.5 27 22.3513 27 16H25ZM15.5 6.5C20.7467 6.5 25 10.7533 25 16H27C27 9.64873 21.8513 4.5 15.5 4.5V6.5ZM6 16C6 10.7533 10.2533 6.5 15.5 6.5V4.5C9.14873 4.5 4 9.64873 4 16H6ZM9.62019 23.4623C7.4135 21.7209 6 19.0258 6 16H4C4 19.664 5.71461 22.928 8.38123 25.0323L9.62019 23.4623ZM8.91335 26.9061L9.91452 24.6535L8.0869 23.8412L7.08573 26.0938L8.91335 26.9061ZM15.4714 25.5H7.99954V27.5H15.4714V25.5ZM15.5 25.5C15.4914 25.5 15.4827 25.5 15.474 25.5L15.4688 27.5C15.4791 27.5 15.4895 27.5 15.5 27.5V25.5Z" fill="white" mask="url(#path-1-inside-1_193_426)"/>
<rect x="11" y="13.5" width="9" height="1" rx="0.5" fill="white"/>
<rect x="11" y="15.5" width="9" height="1" rx="0.5" fill="white"/>
<rect x="11" y="17.5" width="9" height="1" rx="0.5" fill="white"/>
</svg>
