<svg width="35" height="35" viewBox="0 0 35 35" fill="none" xmlns="http://www.w3.org/2000/svg">
<path d="M17.5 25C17.2204 25 16.9862 24.9075 16.7974 24.7226C16.6079 24.5384 16.5132 24.3098 16.5132 24.0369V13.2745L11.7023 17.9695C11.5049 18.1621 11.2704 18.2584 10.9987 18.2584C10.7276 18.2584 10.4934 18.1621 10.2961 17.9695C10.0987 17.7769 10 17.5522 10 17.2953C10 17.0385 10.0987 16.8138 10.2961 16.6212L16.8092 10.2648C16.9079 10.1685 17.0148 10.1002 17.1299 10.0597C17.2451 10.0199 17.3684 10 17.5 10C17.6316 10 17.7592 10.0199 17.8829 10.0597C18.0059 10.1002 18.1086 10.1685 18.1908 10.2648L24.7039 16.6212C24.9013 16.8138 25 17.0385 25 17.2953C25 17.5522 24.9013 17.7769 24.7039 17.9695C24.5066 18.1621 24.272 18.2584 24.0003 18.2584C23.7293 18.2584 23.4951 18.1621 23.2977 17.9695L18.4868 13.2745V24.0369C18.4868 24.3098 18.3924 24.5384 18.2036 24.7226C18.0141 24.9075 17.7796 25 17.5 25Z" fill="white"/>
</svg>
