<svg width="31" height="32" viewBox="0 0 31 32" fill="none" xmlns="http://www.w3.org/2000/svg">
<path d="M3 24.46C3 24.46 6.5 22.2999 9.5 24.46C12.5 26.6201 16 24.46 16 24.46V25.54C16 25.54 12.5 27.7 9.5 25.54C6.5 23.38 3 25.54 3 25.54V24.46Z" fill="white"/>
<path fill-rule="evenodd" clip-rule="evenodd" d="M16.0478 20.9848L18.5843 22.5867L26.8608 9.48137L24.3242 7.87947L16.0478 20.9848ZM17.813 23.2824L15.7511 21.9802L15.9682 23.92L17.813 23.2824ZM14.6683 21.2964L15.2023 20.4508L23.4787 7.34551L24.0127 6.5L24.8582 7.03397L27.3947 8.63586L28.2402 9.16983L27.7063 10.0153L19.4298 23.1207L18.8958 23.9662L16.0822 24.9386L15.1134 25.2735L14.9994 24.2548L14.6683 21.2964Z" fill="white"/>
</svg>
